<svg id="Layer_1" data-name="Layer 1" xmlns="http://www.w3.org/2000/svg" viewBox="0 0 1000 1000"><defs><style>.cls-1{fill:#83aec3;}.cls-2{fill:#66a5c3;}.cls-3{fill:#348ab1;}.cls-4{fill:#036e9e;}.cls-5{fill:#c6e9f7;stroke:#48a2d3;}.cls-5,.cls-6,.cls-7{stroke-miterlimit:10;stroke-width:16px;}.cls-6{fill:#fff;}.cls-6,.cls-7{stroke:#71848f;}.cls-7{fill:none;stroke-linecap:round;}</style></defs><title>whiteArtboard 1</title><path class="cls-1" d="M601.81,160.37c0,24.55-27.24,46.87-71.78,63.51l-1.21.45c-48.75,18-117.83,29.21-194.41,29.21S188.75,242.32,140,224.33l-1.21-.45C94.24,207.24,67,184.92,67,160.37a34.46,34.46,0,0,1,.47-5.55c8.25-48.88,124.6-87.62,266.94-87.62s258.68,38.74,266.94,87.62A34.44,34.44,0,0,1,601.81,160.37Z"/><path class="cls-2" d="M601.81,160.37V288.3c0,51.46-119.71,93.18-267.4,93.18S67,339.76,67,288.3V160.37c0,24.55,27.24,46.87,71.79,63.51l1.21.45c48.75,18,117.82,29.21,194.41,29.21s145.66-11.22,194.41-29.21l1.21-.45C574.57,207.24,601.81,184.92,601.81,160.37Z"/><path class="cls-3" d="M601.81,288.3V416.23c0,51.46-119.71,93.18-267.4,93.18S67,467.69,67,416.23V288.3c0,24.54,27.24,46.87,71.79,63.51l1.21.45c48.75,18,117.82,29.21,194.41,29.21s145.66-11.22,194.41-29.21l1.21-.45C574.57,335.17,601.81,312.84,601.81,288.3Z"/><path class="cls-4" d="M601.81,416.22V544.15c0,51.46-119.71,93.18-267.4,93.18S67,595.61,67,544.15V416.22c0,24.54,27.24,46.87,71.79,63.51l1.21.45c48.75,18,117.82,29.21,194.41,29.21s145.66-11.22,194.41-29.21l1.21-.45C574.57,463.09,601.81,440.76,601.81,416.22Z"/><path class="cls-5" d="M854.11,766.18H441.91c-61.46-6.57-110.25-54.88-117.16-115C318.19,594,350.91,538.34,405,515.6a87.49,87.49,0,0,1,137.72-84.17c49.79-67.3,137.62-91.51,209.23-60.5,60.3,26.11,100.39,87.6,102.13,156.61C909,538.66,949.72,584.12,953.9,637.1,958.6,696.59,916.26,753.17,854.11,766.18Z"/><circle class="cls-6" cx="652.45" cy="732.52" r="113.15"/><line class="cls-7" x1="733.42" y1="811.56" x2="838.93" y2="917.07"/></svg>